<svg version="1.2" xmlns="http://www.w3.org/2000/svg" viewBox="0 0 2048 2048" width="2048" height="2048">
	<title>zytoai-logo</title>
	<style>
		.s0 { fill: #808080 } 
	</style>
	<path id="Path 1" class="s0" d="m932.5 152.1c-115.5 0.4-233.2 1.2-261.5 1.9-28.3 0.6-113.4 1.5-189 2-120.6 0.7-138.5 1-146 2.4-4.7 0.9-11.9 2.6-16 3.7-4.1 1.1-10 2.9-13 4.1-3 1.1-10.2 4.4-16 7.3-5.8 2.9-13.7 7.1-17.5 9.5-3.9 2.3-10.4 6.8-14.5 9.9-4.1 3.1-12.8 10.8-19.4 17.1-6.5 6.3-15.7 16.2-20.3 22-4.7 5.8-12.8 17-18.1 25-5.4 8-12.9 21-16.9 29-3.9 8-8.7 18.8-10.6 24-2 5.2-4.7 13.5-6.2 18.5-1.4 4.9-3.5 13-4.5 18-1 4.9-2.6 14.6-3.5 21.5-1 7.5-1.8 19.8-1.8 30.5-0.1 10.2 0.5 21.5 1.2 26 0.7 4.4 2.4 13.8 3.8 21 1.3 7.1 4.7 19.8 7.4 28 2.8 8.3 7.9 20.8 11.3 28 3.5 7.1 9.9 18.4 14.3 25 4.4 6.6 10.9 15.6 14.4 19.9 3.5 4.4 10.4 12 15.4 16.9 4.9 5 12.6 11.9 17 15.5 4.4 3.5 12.9 9.7 19 13.7 6 4 15.7 9.7 21.5 12.8 5.8 3 15.7 7.5 22 10 6.3 2.5 18 6.3 26 8.5 8 2.2 18.8 4.9 24 6 5.2 1.2 17.6 2.8 27.5 3.6 14.8 1.3 48.5 1.6 192 2 107.5 0.3 176.5 0.2 180.5-0.4 3.6-0.5 9.3-2.3 12.7-4 3.5-1.6 8.8-5.4 11.9-8.2 3.1-2.9 7.6-8 9.9-11.3 2.3-3.3 5.6-8.7 7.3-12 1.6-3.3 4.2-9.8 5.7-14.5 2.2-6.9 2.8-11 3.3-21.5 0.4-10.1 0.1-14.2-1.1-18.5-0.9-3-2.8-7.1-4.2-9-1.5-1.9-4.7-5-7.3-6.8-2.6-1.8-8.3-4.4-12.7-5.8-4.4-1.4-12.3-3.2-17.5-4-7.1-1.1-26.4-1.7-75.5-2.4-36.3-0.6-67.4-1.2-69-1.5-1.7-0.3-10.2-1-19-1.5-8.8-0.6-41-1.5-71.5-2.1-30.5-0.5-70.6-1.3-89-1.9-22.5-0.6-36.3-1.4-42-2.5-4.7-0.8-11.9-2.4-16-3.5-4.1-1-10.9-3.3-15-5-4.1-1.7-11.1-5.5-15.5-8.5-4.4-2.9-11.6-8.8-16.1-13.2-4.5-4.3-10.9-11.6-14.4-16.3-3.4-4.7-8.6-13.5-11.6-19.5-2.9-6.1-6.5-15.1-7.9-20-1.4-5-3-12.4-3.6-16.5-0.7-5.2-0.7-10.2 0-16 0.6-4.7 2.2-13 3.6-18.5 1.4-5.5 4.5-14.1 6.9-19 2.5-5 7.3-12.6 10.8-17 3.5-4.4 9.7-10.6 13.8-13.9 4.1-3.2 10.4-7.5 14-9.6 3.6-2.1 11.2-5.4 17-7.3 5.8-2 15-4.5 20.5-5.8 9.9-2.2 10.9-2.2 125.5-2.9 72.1-0.5 121.7-1.2 132-1.9 9.1-0.7 22.8-1.6 30.5-2.1 7.7-0.5 88.5-1.4 179.5-2 148.9-1 166.6-0.9 176 0.5 5.8 0.8 15.2 3.2 21 5.1 5.8 2 13.9 5.3 18 7.4 4.1 2.1 11.5 6.5 16.5 9.8 4.9 3.2 12.4 9.3 16.5 13.4 4.1 4 9.6 10.5 12.1 14.3 2.6 3.9 5.8 9.3 7.2 12 1.4 2.8 4.1 9.5 6 15 1.9 5.5 4.2 13.5 5.1 17.8 0.9 4.2 1.6 10.4 1.6 13.7 0 3.3-0.9 10.4-2 15.8-1.1 5.3-3.3 13.7-5 18.7-1.7 4.9-4.5 11.5-6.2 14.5-1.7 3-4.8 7.8-6.8 10.5-2.1 2.8-6.8 8.4-10.6 12.6-3.8 4.2-14.3 15.7-23.4 25.5-9 9.9-24.3 26.2-33.9 36.4-9.6 10.2-31.3 32.9-48.1 50.5-16.8 17.6-34.3 36-38.9 41-4.6 4.9-58.9 59.6-120.6 121.5-61.7 61.9-121 121-131.6 131.5-10.7 10.4-23.3 21.9-27.9 25.4-4.7 3.5-11.4 8.1-15 10.2-3.6 2.1-9.9 5.1-14 6.6l-7.5 2.8c-63.4 0.2-68.1 0.4-77 2.3-5.5 1.2-14.1 3.5-19 5.3-5 1.7-13.1 5.1-18 7.6-5 2.5-13.1 7.3-18 10.6-5.2 3.6-13.8 10.9-20.5 17.7-6.3 6.3-14 15.1-17.1 19.5-3.1 4.4-7.7 11.6-10.3 16-2.5 4.4-6.3 12.7-8.5 18.5-2.2 5.8-5.2 15.9-6.7 22.5-2.6 11.1-2.9 13.6-2.8 32 0 17 0.3 21.6 2.2 30.5 1.3 5.8 3.7 14.8 5.4 20 1.7 5.2 5.4 14.4 8.2 20.5 2.9 6 8.3 15.7 12.1 21.5 4.3 6.3 11.5 15.1 18.5 22.3 6.3 6.6 15.3 14.8 20 18.3 4.7 3.5 14.3 9.3 21.5 12.9 7.1 3.5 16.8 7.7 21.5 9.4 4.7 1.6 12.3 3.7 17 4.7 6.7 1.5 12.9 1.9 29 1.9 12.8 0 23.3-0.5 28-1.4 4.1-0.7 11.9-2.6 17.2-4.2 5.4-1.6 14.9-5.2 21-7.9 6.2-2.8 16.2-8.4 22.3-12.4 6.2-4.2 15.7-11.8 21.9-17.7 6-5.7 13.7-14 17.1-18.4 3.4-4.4 8.3-11.6 10.8-16 2.6-4.4 6.4-12.5 8.6-18 2.2-5.5 4.9-13.6 6.1-18 2-7.1 2.3-11.6 3-39 0.6-23.5 1.2-32.5 2.4-37 0.9-3.3 3.6-10.1 6.1-15 2.5-5 8.2-14 12.7-20 4.6-6.1 12.6-16 17.8-22 5.2-6.1 20-21.8 32.8-35 12.9-13.2 34.1-34.6 47.1-47.5 13-12.9 28.6-28.7 34.6-35 6-6.3 18.1-18.9 27-28 8.8-9.1 25.9-26.6 38-39 12-12.4 32.1-32.9 44.5-45.5 12.4-12.7 28.8-29.5 36.5-37.5 7.7-8 21.4-22.4 30.5-32 9-9.6 22.1-23.4 29.1-30.5 6.9-7.2 20.9-21.8 31-32.5 10.1-10.7 27.4-28.8 38.4-40.3 11-11.5 25.8-27.1 32.9-34.6 7.1-7.5 17.2-18.8 22.6-25.1 5.3-6.3 12.1-14.9 15.1-19 3-4.1 6.9-9.7 8.6-12.5 1.8-2.7 5.2-9.3 7.7-14.5 2.4-5.2 5.6-12.9 7-17 1.3-4.1 3.4-12 4.5-17.5 1.1-5.5 2.3-15.9 2.6-23 0.4-7.2 1.3-17.1 2.2-22 0.8-5 2.6-12.4 3.9-16.5 1.4-4.1 3.9-10 5.7-13 1.7-3 5.6-8 8.7-11 3-3 8.7-7.2 12.5-9.2 3.9-2 10.4-4.6 14.5-5.6 4.1-1.1 13.8-2.5 21.5-3.1 7.7-0.6 34.5-1.5 59.5-2.1 25-0.6 81.3-1.1 125-1.3l79.5-0.2c12 3.5 17.9 5.7 20.7 7.2 2.9 1.4 7.3 4.7 9.9 7.2 2.5 2.5 5.7 7.1 7.2 10.1 1.4 3 3.3 8.2 4.2 11.5 0.8 3.3 1.5 8.9 1.5 12.5 0 3.6-0.7 9.4-1.6 13-0.8 3.6-2.8 9.2-4.4 12.5-1.6 3.3-5 9-7.7 12.6-2.6 3.7-9.4 11.8-15 18-5.6 6.3-22.7 23.5-38 38.3-15.3 14.8-46.2 45.4-68.7 68-22.5 22.6-52.6 53.5-67.1 68.6-14.4 15.1-51.8 53.1-83.1 84.5-31.3 31.3-62.8 63.1-69.9 70.5-7.2 7.4-30.2 31-51.1 52.5-20.9 21.4-48.1 50-60.4 63.5-12.4 13.5-25 27.4-28.1 31-3.1 3.6-9.7 11.9-14.6 18.5-5 6.6-13.3 18.3-18.5 26-5.2 7.7-12.4 19.6-16.1 26.5-3.6 6.9-8.6 17.2-11 23-2.4 5.8-6.3 16.3-8.7 23.5-2.3 7.1-5.7 19.3-7.5 27-1.9 7.7-4.3 21.3-5.4 30.3-1.2 8.9-2.1 21.8-2.1 28.7 0 6.9 0.9 20.7 2 30.8 1.2 10 2.8 21.6 3.6 25.7 0.8 4.1 2.6 11.8 4 17 1.3 5.2 4.1 14.4 6 20.5 2 6 5.2 14.8 7.1 19.5 1.9 4.7 6.7 14.8 10.6 22.5 3.9 7.7 10.7 19.4 15.2 26 4.4 6.6 11.2 16.3 15.2 21.5 3.9 5.2 10.9 14 15.5 19.5 4.5 5.5 15.7 17.4 24.8 26.5 10.2 10.1 23.6 22.1 34.8 31 10 8 24.4 18.4 31.9 23.2 7.6 4.9 19.6 11.7 26.8 15.2 7.1 3.6 17.5 8.3 23 10.4 5.5 2.2 15.6 5.6 22.5 7.6 6.9 2 19.9 5 29 6.6 9.1 1.7 17.6 3.3 19 3.7 1.4 0.3 62.3 0.9 135.5 1.2l133 0.6c20.9 4.4 32.2 7.4 38.5 9.4 6.3 2.1 16.7 6.4 23 9.7 6.3 3.2 14.9 8.4 19 11.5 4.1 3 10.7 8.9 14.5 13 3.9 4.1 8.6 9.7 10.5 12.4 1.9 2.8 4.9 7.7 6.8 11 1.9 3.3 5.4 10.7 7.9 16.5 2.4 5.8 5.5 14.1 6.8 18.5 1.3 4.4 2.8 11.8 3.5 16.5 0.6 4.7 1.2 14.8 1.1 22.5 0 7.7-0.5 17.8-1.1 22.5-0.6 4.7-2.2 12.3-3.5 17-1.3 4.7-4.1 12.5-6.2 17.5-2.2 4.9-6.4 13.3-9.5 18.5-3.2 5.6-8.8 13-13.4 17.9-4.4 4.7-11.5 11.1-15.9 14.3-4.4 3.2-12.3 8.1-17.5 10.8-5.2 2.7-14.2 6.4-20 8.3-5.8 1.9-14.3 4.3-19 5.3-8.2 1.8-23.2 1.9-442.5 1.9h-434c-14-4.3-21.2-7.1-25-8.9-3.9-1.8-9.9-5.5-13.4-8.2-3.5-2.7-8.4-7.6-10.9-10.9-2.5-3.3-6.2-9.6-8.3-14-2-4.4-4.5-11.2-5.4-15-1.3-5.4-1.6-9.8-1.2-19 0.3-9.1 1.1-14.2 3.2-21 1.4-5 4.2-12.4 6.1-16.5 2-4.1 5.9-11.1 8.9-15.5 2.9-4.4 9.8-13 15.2-19 5.5-6.1 30.8-31.3 56.4-56.1 25.5-24.8 52.2-50.5 59.4-57.1 7.1-6.7 19.8-19 28.1-27.4 8.3-8.5 21.8-22.6 30-31.4 8.2-8.8 18.5-20.1 22.9-25 4.4-5 11.5-13.3 15.6-18.5 4.2-5.2 10-13.1 13-17.5 2.9-4.4 7-11.6 9-16 2.1-4.4 4.5-10.7 5.3-14 0.9-3.3 1.9-10.3 2.2-15.5 0.4-6.8 0.2-11.6-1-17-0.9-4.1-2.9-10.2-4.5-13.5-1.6-3.3-5-8.7-7.6-12-2.5-3.3-6.7-7.7-9.3-9.8-2.6-2.1-7-5.1-9.7-6.7-2.8-1.5-8.6-4.1-13-5.6-6.9-2.4-9.6-2.8-19.5-2.8-8.9 0-13.2 0.5-19.3 2.2-4.2 1.2-10.1 3.4-13 4.8-2.8 1.5-7.2 4-9.7 5.7-2.5 1.7-7.4 5.5-11 8.6-3.6 3-15.7 14.5-26.9 25.5-11.2 11.1-27.4 28-36 37.6-8.6 9.6-23.2 25.6-32.5 35.5-9.4 9.9-22 23.2-28 29.5-6.1 6.3-39.2 39.6-73.6 74-34.4 34.4-81.3 81.2-104.3 104-23 22.8-63.1 62.9-89 89.1-26 26.2-50.6 50.3-54.7 53.6-4.1 3.3-11.1 8.4-15.5 11.3-4.4 3-11.9 7.3-16.8 9.7-4.8 2.4-12.4 5.4-17 6.7-4.5 1.3-12.7 3-18.2 3.6-5.8 0.8-13.6 1-18.5 0.7-4.7-0.4-11.9-1.6-16-2.8-4.1-1.1-10.4-3.6-14-5.5-3.6-1.9-9.6-5.8-13.5-8.7-3.8-2.8-9.6-8.6-12.8-12.7-3.3-4.1-7.9-11.6-10.3-16.5-2.4-5-5.2-12.8-6.3-17.5-1.1-4.7-2.6-13.9-3.3-20.5-0.9-9.4-0.9-14.9 0-25.5 0.7-7.4 2.1-17.1 3.1-21.5 1.1-4.4 3.1-11.6 4.6-16 1.5-4.4 4.7-12.3 7.1-17.5 2.5-5.2 5.9-11.7 7.7-14.5 1.7-2.7 5.1-7.7 7.6-11 2.4-3.3 23.2-24.9 46-48 22.9-23.1 52.6-53.5 66.1-67.5 13.4-14 29.7-31.4 36.2-38.5 6.5-7.2 13.8-15.7 16.3-19 2.4-3.3 5.9-8.9 7.6-12.5 1.7-3.6 3.8-9.9 4.7-14 1.4-6.8 1.4-8.3-0.1-16-1-4.9-3.1-11.5-5.1-15.5-1.9-3.9-5.9-9.9-8.9-13.5-3-3.6-8.7-9-12.8-12.1-4.1-3.2-10.1-7-13.4-8.7-3.3-1.6-8.7-3.7-12-4.7-3.8-1.2-9.1-1.8-14.5-1.8-6.4 0-10 0.6-14.5 2.3-3.3 1.3-8.5 3.8-11.5 5.6-3 1.7-8.9 5.8-13 9-4.1 3.1-14 11.1-22 17.7-10.3 8.6-35.5 33.2-87.3 85.1-40.1 40.2-77.5 78.4-83.3 84.9-5.7 6.4-13.6 16.1-17.6 21.5-4 5.3-10.1 14.4-13.6 20.2-3.5 5.8-8.8 15.6-11.8 21.8-3 6.1-7.4 17.2-9.8 24.5-2.4 7.2-5.6 18.8-7 25.7-1.4 6.9-3 17.9-3.5 24.5-0.6 6.6-1.1 18.1-1.1 25.5 0 7.4 0.5 19.6 1.1 27 0.5 7.4 2.1 18.9 3.4 25.5 1.3 6.6 4 17.6 6 24.5 2 6.9 6.1 18.6 9.1 26 3 7.4 7.2 16.6 9.3 20.5 2.1 3.8 6.4 11.3 9.6 16.5 3.3 5.2 9.2 13.8 13.1 19 3.9 5.2 12.5 15.1 19 21.9 6.6 6.8 16.4 16 21.9 20.4 5.5 4.4 14.7 11.2 20.5 15 5.8 3.8 16.3 9.8 23.5 13.3 7.1 3.5 20.4 8.8 29.5 11.8 9.2 3 23.5 6.8 32.2 8.5 8.7 1.7 21.1 3.5 27.5 4 6.7 0.5 291.6 0.8 653.3 0.7 607-0.1 642.2-0.2 654.5-1.9 7.1-0.9 18.8-2.7 26-3.8 7.1-1.2 19.8-4 28-6.4 8.3-2.4 20.4-6.4 27-9 6.6-2.6 17.2-7.3 23.5-10.5 6.3-3.1 15.1-7.9 19.5-10.5 4.4-2.7 10.7-6.6 14-8.8 3.3-2.2 11.2-7.9 17.5-12.5 6.7-4.9 18.4-15.3 27.9-24.6 8.9-8.9 19.8-20.4 24-25.6 4.2-5.2 10.6-13.8 14.3-19 3.6-5.2 9.2-13.8 12.3-19 3.2-5.2 8.8-15.4 12.6-22.5 3.7-7.2 8.1-16.4 9.7-20.5 1.6-4.1 4.6-12.5 6.6-18.5 2-6.1 5.4-19.8 7.6-30.5 3.3-16 4.2-23 5.1-39 0.6-10.8 0.8-27.8 0.4-38-0.3-10.2-1.1-21.9-1.6-26-0.5-4.1-2.5-14.9-4.5-24-2-9.1-5.9-23.2-8.6-31.5-2.7-8.3-8.5-22.4-12.9-31.5-4.4-9.1-11.5-22.3-15.7-29.4-4.2-7.1-13.2-20.1-19.8-29-6.7-8.8-15.5-19.7-19.6-24.1-4.1-4.4-11.7-11.6-16.9-16.1-5.2-4.4-13.9-11.4-19.4-15.5-5.5-4-15.9-10.9-23-15.2-7.2-4.3-17.1-9.7-22-12.2-5-2.4-12.8-5.9-17.5-7.8-4.7-1.9-13.9-5.1-20.5-7.1-6.6-2-16.3-4.5-21.5-5.6-5.2-1-14.9-2.9-21.5-4.2-12-2.2-12-2.2-156.5-2.8-127.8-0.6-145.4-0.9-152.5-2.3-4.4-0.9-12.5-2.8-18-4.3-5.5-1.4-13.4-4-17.5-5.6-4.1-1.6-11.8-5.2-17-7.9-5.2-2.7-13.3-7.7-18-11.2-4.7-3.6-13.2-11.3-18.9-17.3-5.7-6-13.2-15.2-16.7-20.4-3.4-5.2-8.5-14.2-11.2-20-2.7-5.8-6.8-16.1-9-23-2.2-6.9-4.8-16.3-5.7-21-0.9-4.7-1.9-15.5-2.2-24-0.3-8.5 0-22 0.6-30 0.6-8 2-18.1 3.1-22.5 1.2-4.4 3.5-12.1 5.1-17 1.7-5 5-13.3 7.5-18.5 2.5-5.2 7.1-13.3 10.2-18 3.1-4.7 8.9-12.3 12.7-17 3.9-4.7 12.7-14.2 19.6-21.1 6.8-6.9 26.3-26 43.4-42.4 17-16.4 60.7-59.3 97-95.5 36.3-36.1 79.5-80 96-97.6 16.4-17.5 38-40.2 47.9-50.4 9.9-10.2 30.4-31.1 45.6-46.5 15.1-15.4 30.9-31.6 35-36 4.1-4.4 43-44 86.5-88.1 43.4-44 84.4-86.1 91-93.5 6.7-7.3 15.7-17.9 20-23.4 4.4-5.5 12.4-16.5 17.7-24.5 5.3-8 12.8-20.8 16.6-28.5 3.8-7.7 8.2-17.4 9.6-21.5 1.5-4.1 3.6-12 4.8-17.5q2.1-10 2.1-21.5 0-11.5-2.1-23.2c-1.2-6.5-3.4-15.1-4.8-19-1.5-4-5.1-12.3-8.2-18.3-3-6.1-7.7-14.6-10.5-19-2.7-4.4-7-10.7-9.6-14-2.5-3.3-7-8.7-10-12-2.9-3.3-8.3-8.7-12-11.9-3.6-3.2-10.9-8.7-16.1-12.2-5.2-3.4-12.9-7.8-17-9.7-4.1-1.9-11.1-4.7-15.5-6.1-4.4-1.5-14.5-4.1-22.5-5.9l-14.5-3.2c-485.9 0-721.5 0.3-837 0.6z"/>
</svg>